<svg xmlns="http://www.w3.org/2000/svg" viewBox="0 0 489.93 151.85"><defs><style>.cls-1{fill:#005aa9;}</style></defs><g id="Layer_2" data-name="Layer 2"><g id="Layer_1-2" data-name="Layer 1"><path class="cls-1" d="M0,38.68V151.85H145.14V104H47.88V47.88h97.26V0H38.68A38.7,38.7,0,0,0,0,38.68M141.29,44H44v63.81h97.27V148H3.86V38.68A34.83,34.83,0,0,1,38.68,3.86H141.29V44M9.2,38.68v104H136V113.16H38.68V38.68H136V9.19H38.68A29.5,29.5,0,0,0,9.2,38.68m221-29.49L162.64,142.65h29.49l15-29.49h75.7l15,29.49h29.48L259.71,9.19H230.23m-9.64,77.46,24.38-48,24.38,48H220.59M489.93,47.88V0H383.48a38.7,38.7,0,0,0-38.69,38.68V96.89H440V104H344.79v47.88H489.93V55H392.67V47.88h97.26m-3.85,10.93V148H348.65V107.83h95.18V93H348.65V38.68A34.83,34.83,0,0,1,383.48,3.86h102.6V44H388.82V58.81h97.26M229.3,81.31h31.35L245,50.47,229.3,81.31m6.28-3.86L245,59l9.39,18.48H235.58M224.58,0l-76.9,151.85h50.09l15-29.49h64.42l15,29.49h50.09L265.37,0H224.58m69.95,148-15-29.48H210.39l-15,29.48H154L227,3.86H263L336,148H294.53M480.74,38.68V9.19H383.48A29.51,29.51,0,0,0,354,38.68v49h95.18v25.46H354v29.49H480.74V64.15H383.48V38.68Z"/></g></g></svg>