<?xml version="1.0" encoding="UTF-8"?> <!-- Generator: Adobe Illustrator 16.0.0, SVG Export Plug-In . SVG Version: 6.00 Build 0) --> <svg xmlns="http://www.w3.org/2000/svg" xmlns:xlink="http://www.w3.org/1999/xlink" id="Layer_1" x="0px" y="0px" width="255.614px" height="142.945px" viewBox="0 0 255.614 142.945" xml:space="preserve"> <path fill="#00263D" d="M255.614,0v73.988c0,0,0,68.957-68.957,68.957H0V0H255.614z"></path> <g> <g> <path fill="#F2E403" d="M54.566,43.119l-10.52,27.296v0.284c0,0.995,0.389,1.73,1.172,2.203c0.782,0.475,1.646,0.711,2.594,0.711 h12.299c0.946,0,1.99-0.271,3.127-0.816c1.137-0.543,2.062-1.337,2.773-2.381l10.52-27.296c0.807-2.18,1.635-3.732,2.488-4.656 c0.853-0.925,1.967-1.387,3.342-1.387h7.818c1.563,0,2.347,0.64,2.347,1.92c0,0.899-0.355,2.273-1.066,4.123L79.518,74.183 c-0.428,1.137-1.244,2.393-2.452,3.768c-1.21,1.375-2.597,2.641-4.159,3.801c-1.564,1.164-3.199,2.133-4.904,2.916 c-1.707,0.781-3.296,1.172-4.764,1.172H35.09c-1.232,0-2.322-0.26-3.271-0.781c-0.946-0.521-1.766-1.209-2.451-2.063 c-0.688-0.852-1.208-1.799-1.563-2.844c-0.354-1.041-0.533-2.107-0.533-3.199c0-1.229,0.165-2.154,0.497-2.77L39.71,43.119 c0.806-2.18,1.636-3.732,2.487-4.656c0.854-0.925,1.967-1.387,3.342-1.387h7.818c1.517,0,2.274,0.617,2.274,1.848 C55.632,39.873,55.276,41.27,54.566,43.119z"></path> <path fill="#F2E403" d="M142.213,43.119l-10.521,27.296v0.284c0,0.995,0.402,1.73,1.207,2.203 c0.807,0.475,1.684,0.711,2.631,0.711h4.479c0.947,0,1.992-0.271,3.129-0.816c1.137-0.543,2.061-1.337,2.771-2.381l10.521-27.296 c0.805-2.18,1.637-3.732,2.488-4.656c0.852-0.925,1.967-1.387,3.34-1.387h7.818c1.564,0,2.348,0.64,2.348,1.92 c0,0.899-0.355,2.273-1.066,4.123l-11.943,31.064c-0.426,1.137-1.242,2.393-2.451,3.768c-1.207,1.375-2.594,2.641-4.16,3.801 c-1.563,1.164-3.197,2.133-4.904,2.916c-1.705,0.781-3.295,1.172-4.762,1.172h-18.624c-1.279,0-2.24-0.273-2.879-0.816 c-0.643-0.545-1.316-1.268-2.027-2.168c-1.374,0.9-2.593,1.623-3.659,2.168c-1.067,0.543-2.216,0.816-3.449,0.816H93.662 c-1.233,0-2.322-0.26-3.27-0.781c-0.949-0.521-1.766-1.209-2.453-2.063c-0.687-0.852-1.209-1.799-1.564-2.844 c-0.354-1.041-0.532-2.107-0.532-3.199c0-1.229,0.167-2.154,0.496-2.77l11.944-31.064c0.805-2.18,1.635-3.732,2.487-4.656 c0.853-0.925,1.966-1.387,3.341-1.387h7.819c1.515,0,2.275,0.617,2.275,1.848c0,0.949-0.356,2.346-1.067,4.195l-10.52,27.296 v0.284c0,0.995,0.391,1.73,1.172,2.203c0.783,0.475,1.646,0.711,2.596,0.711h4.477c0.949,0,1.992-0.271,3.131-0.816 c1.135-0.543,2.061-1.337,2.771-2.381l10.521-27.296c0.806-2.18,1.636-3.732,2.489-4.656c0.852-0.925,1.965-1.387,3.34-1.387 h7.818c1.564,0,2.348,0.64,2.348,1.92C143.28,39.896,142.924,41.27,142.213,43.119z"></path> <path fill="#F2E403" d="M166.239,74.183l10.947-28.506c0.426-1.042,0.971-2.084,1.635-3.127c0.662-1.041,1.422-1.965,2.275-2.772 c0.852-0.806,1.752-1.456,2.701-1.954c0.947-0.5,1.918-0.747,2.914-0.747h41.229c0.379,0,0.568,0.331,0.568,0.995 c0,0.521-0.096,1.127-0.283,1.813c-0.189,0.688-0.332,1.172-0.428,1.458c-0.332,0.853-0.771,1.753-1.314,2.701 c-0.547,0.948-1.15,1.812-1.813,2.594c-0.664,0.783-1.352,1.422-2.061,1.919c-0.713,0.498-1.422,0.748-2.133,0.748h-28.008 c-0.426,0-0.818,0.13-1.174,0.391s-0.674,0.592-0.959,0.994c-0.283,0.402-0.533,0.83-0.746,1.28 c-0.213,0.449-0.391,0.865-0.533,1.243c-0.047,0.237-0.084,0.428-0.105,0.57c-0.025,0.141-0.037,0.26-0.037,0.355 c0,0.282,0.059,0.544,0.178,0.78c0.119,0.238,0.32,0.354,0.605,0.354h25.518c0.379,0,0.57,0.334,0.57,0.997 c0,0.522-0.096,1.125-0.285,1.812c-0.189,0.688-0.332,1.174-0.426,1.458c-0.334,0.853-0.771,1.753-1.316,2.701 s-1.139,1.824-1.777,2.629c-0.639,0.809-1.314,1.471-2.025,1.991c-0.711,0.521-1.398,0.782-2.061,0.782h-22.32 c-0.76,0-1.352,0.226-1.777,0.676c-0.428,0.45-0.854,1.148-1.281,2.097c-0.045,0.238-0.082,0.416-0.105,0.532 c-0.023,0.119-0.035,0.203-0.035,0.25c0,0.853,0.391,1.47,1.172,1.847c0.783,0.379,1.6,0.568,2.453,0.568h27.58 c0.379,0,0.568,0.402,0.568,1.209c0,0.615-0.082,1.291-0.248,2.025c-0.166,0.736-0.297,1.244-0.391,1.527 c-0.428,1.092-1.031,2.1-1.813,3.021c-0.783,0.926-1.684,1.719-2.701,2.383c-1.02,0.664-2.098,1.172-3.236,1.527 c-1.137,0.355-2.273,0.533-3.41,0.533h-28.789c-1.232,0-2.322-0.26-3.27-0.781c-0.949-0.521-1.766-1.209-2.453-2.063 c-0.688-0.852-1.207-1.799-1.564-2.844c-0.355-1.041-0.531-2.107-0.531-3.199C165.743,75.724,165.907,74.798,166.239,74.183z"></path> </g> <g> <g> <path fill="#FFFFFF" d="M31.354,92.687l-2.405,5.957c-0.911,2.254-0.296,3.209,1.046,3.209c1.491,0,2.846-0.986,3.743-3.209 l2.407-5.957h1.313l-2.37,5.867c-1.249,3.09-3.388,4.359-5.566,4.359c-2.059,0-3.135-1.18-1.874-4.301l2.396-5.926H31.354z"></path> <path fill="#FFFFFF" d="M37.73,97.48c0.3-0.746,0.533-1.359,0.729-1.955h1.164l-0.407,1.193h0.029 c0.635-0.688,1.743-1.357,2.936-1.357c1,0,2.312,0.596,1.309,3.074l-1.744,4.314h-1.311l1.682-4.166 c0.471-1.164,0.43-2.133-0.808-2.133c-0.866,0-1.784,0.611-2.304,1.342c-0.127,0.166-0.246,0.387-0.338,0.613l-1.756,4.344 h-1.312L37.73,97.48z"></path> <path fill="#FFFFFF" d="M43.883,102.75l2.92-7.225h1.311l-2.918,7.225H43.883z M49.084,93.494 c-0.166,0.447-0.641,0.807-1.16,0.807c-0.464,0-0.646-0.359-0.465-0.807c0.186-0.463,0.674-0.818,1.15-0.818 C49.102,92.675,49.271,93.031,49.084,93.494z"></path> <path fill="#FFFFFF" d="M50.799,95.525l-0.221,4.061c-0.029,0.654-0.075,1.254-0.168,1.852h0.045 c0.406-0.598,0.856-1.197,1.36-1.852l3.044-4.061h1.371l-5.754,7.225h-1.254l0.174-7.225H50.799z"></path> <path fill="#FFFFFF" d="M56.496,99.375c-0.688,1.777,0.15,2.508,1.464,2.508c0.94,0,1.573-0.164,2.151-0.373l-0.157,0.941 c-0.548,0.209-1.435,0.447-2.585,0.447c-2.221,0-2.957-1.461-2.078-3.643c0.881-2.18,2.857-3.895,4.961-3.895 c2.357,0,2.146,2.074,1.609,3.402c-0.109,0.27-0.222,0.477-0.291,0.611H56.496z M60.726,98.435 c0.353-0.836,0.52-2.135-0.958-2.135c-1.327,0-2.402,1.225-2.875,2.135H60.726z"></path> <path fill="#FFFFFF" d="M63.886,97.779c0.343-0.852,0.624-1.584,0.851-2.254h1.148l-0.528,1.416h0.06 c0.721-0.969,1.761-1.58,2.641-1.58c0.148,0,0.247,0.016,0.354,0.043l-0.502,1.24c-0.121-0.029-0.248-0.045-0.428-0.045 c-0.926,0-1.865,0.701-2.443,1.686c-0.101,0.178-0.215,0.391-0.306,0.611l-1.556,3.854h-1.299L63.886,97.779z"></path> <path fill="#FFFFFF" d="M67.121,101.406c0.287,0.254,0.863,0.521,1.52,0.521c0.955,0,1.596-0.477,1.837-1.074 c0.253-0.627,0.019-0.969-0.806-1.328c-1.111-0.463-1.434-1.182-1.084-2.045c0.471-1.166,1.797-2.119,3.348-2.119 c0.73,0,1.287,0.209,1.594,0.449l-0.712,0.953c-0.211-0.18-0.638-0.418-1.31-0.418c-0.775,0-1.391,0.447-1.606,0.984 c-0.241,0.598,0.083,0.867,0.878,1.225c1.061,0.479,1.449,1.104,1.014,2.18c-0.512,1.268-1.858,2.164-3.574,2.164 c-0.79,0-1.443-0.193-1.83-0.492L67.121,101.406z"></path> <path fill="#FFFFFF" d="M76.666,102.75l0.263-0.91h-0.045c-0.632,0.566-1.613,1.074-2.643,1.074c-1.462,0-1.792-1.031-1.37-2.074 c0.706-1.748,2.644-2.703,5.427-2.688l0.062-0.15c0.242-0.596,0.512-1.67-0.966-1.67c-0.671,0-1.456,0.207-2.097,0.537 l0.05-0.865c0.755-0.391,1.724-0.643,2.632-0.643c2.209,0,2.139,1.508,1.553,2.955l-1.092,2.701 c-0.254,0.627-0.471,1.24-0.581,1.732H76.666z M77.961,99.062c-1.42-0.029-3.149,0.225-3.715,1.627 c-0.346,0.852,0.059,1.254,0.729,1.254c0.94,0,1.778-0.598,2.233-1.209c0.102-0.135,0.191-0.285,0.245-0.418L77.961,99.062z"></path> <path fill="#FFFFFF" d="M84.141,92.15h1.311l-4.281,10.6h-1.313L84.141,92.15z"></path> </g> <g> <path fill="#FFFFFF" d="M92.542,102.75l1.515-10.063h1.373l-0.861,5.092c-0.211,1.254-0.449,2.506-0.661,3.479h0.029 c0.569-1.002,1.364-2.195,2.233-3.494l3.393-5.076h1.359l-0.84,5.105c-0.2,1.195-0.414,2.389-0.691,3.449h0.027 c0.656-1.105,1.393-2.225,2.211-3.479l3.38-5.076h1.329L99.42,102.75h-1.355l0.85-5.24c0.204-1.283,0.393-2.27,0.668-3.283 h-0.029c-0.582,1-1.203,1.982-2.101,3.283l-3.552,5.24H92.542z"></path> <path fill="#FFFFFF" d="M105.083,99.375c-0.688,1.777,0.15,2.508,1.462,2.508c0.942,0,1.574-0.164,2.151-0.373l-0.155,0.941 c-0.549,0.209-1.436,0.447-2.584,0.447c-2.223,0-2.961-1.461-2.08-3.643c0.882-2.18,2.857-3.895,4.961-3.895 c2.357,0,2.146,2.074,1.611,3.402c-0.11,0.27-0.226,0.477-0.292,0.611H105.083z M109.312,98.435 c0.353-0.836,0.519-2.135-0.956-2.135c-1.33,0-2.406,1.225-2.877,2.135H109.312z"></path> <path fill="#FFFFFF" d="M110.465,102.75l2.919-7.225h1.313l-2.92,7.225H110.465z M115.668,93.494 c-0.167,0.447-0.641,0.807-1.162,0.807c-0.463,0-0.646-0.359-0.464-0.807c0.187-0.463,0.674-0.818,1.151-0.818 C115.685,92.675,115.854,93.031,115.668,93.494z"></path> <path fill="#FFFFFF" d="M123.098,95.525c-0.241,0.521-0.505,1.104-0.859,1.984l-1.697,4.195c-0.67,1.656-1.408,2.67-2.363,3.297 c-0.967,0.658-2.063,0.865-2.975,0.865c-0.865,0-1.736-0.207-2.162-0.596l0.734-1c0.357,0.299,0.992,0.568,1.889,0.568 c1.344,0,2.611-0.701,3.346-2.523l0.326-0.807h-0.027c-0.677,0.672-1.67,1.209-2.787,1.209c-1.791,0-2.459-1.523-1.65-3.521 c0.99-2.449,3.146-3.836,4.803-3.836c1.252,0,1.674,0.656,1.746,1.254h0.028l0.501-1.09H123.098z M120.588,98.376 c0.09-0.225,0.154-0.418,0.168-0.598c0.066-0.764-0.321-1.389-1.275-1.389c-1.252,0-2.576,1.059-3.25,2.732 c-0.573,1.418-0.336,2.596,1.082,2.596c0.806,0,1.742-0.508,2.363-1.344c0.165-0.223,0.299-0.477,0.387-0.699L120.588,98.376z"></path> <path fill="#FFFFFF" d="M126.58,92.15h1.311l-1.821,4.51h0.032c0.359-0.373,0.818-0.703,1.313-0.926 c0.479-0.225,1.003-0.373,1.495-0.373c0.97,0,2.279,0.596,1.273,3.088l-1.738,4.301h-1.313l1.678-4.15 c0.469-1.164,0.434-2.148-0.803-2.148c-0.851,0-1.764,0.596-2.291,1.313c-0.146,0.18-0.242,0.373-0.346,0.629l-1.759,4.357 h-1.313L126.58,92.15z"></path> <path fill="#FFFFFF" d="M135.858,93.449l-0.838,2.076h1.879l-0.402,1h-1.881l-1.572,3.895c-0.363,0.896-0.316,1.404,0.416,1.404 c0.342,0,0.615-0.045,0.797-0.09l-0.336,0.984c-0.297,0.105-0.73,0.18-1.238,0.18c-0.611,0-1.027-0.193-1.193-0.551 c-0.217-0.391-0.092-1.031,0.252-1.881l1.592-3.941h-1.121l0.406-1h1.119l0.701-1.732L135.858,93.449z"></path> </g> <g> <path fill="#FFFFFF" d="M152.272,98.031h-3.908l-1.465,3.629h4.357l-0.441,1.09h-5.654l4.064-10.063h5.43l-0.439,1.092h-4.135 l-1.283,3.178h3.91L152.272,98.031z"></path> <path fill="#FFFFFF" d="M156.737,92.15h1.314l-4.283,10.6h-1.311L156.737,92.15z"></path> <path fill="#FFFFFF" d="M158.073,99.375c-0.688,1.777,0.148,2.508,1.463,2.508c0.939,0,1.572-0.164,2.15-0.373l-0.156,0.941 c-0.547,0.209-1.434,0.447-2.584,0.447c-2.221,0-2.957-1.461-2.078-3.643c0.881-2.18,2.857-3.895,4.961-3.895 c2.357,0,2.145,2.074,1.607,3.402c-0.107,0.27-0.221,0.477-0.291,0.611H158.073z M162.301,98.435 c0.354-0.836,0.52-2.135-0.957-2.135c-1.328,0-2.404,1.225-2.875,2.135H162.301z"></path> <path fill="#FFFFFF" d="M168.709,102.48c-0.416,0.18-1.271,0.418-2.242,0.418c-2.18,0-2.998-1.477-2.107-3.688 c0.898-2.225,3.074-3.834,5.432-3.834c0.773,0,1.383,0.193,1.668,0.371l-0.709,1.016c-0.24-0.18-0.668-0.344-1.383-0.344 c-1.656,0-3.045,1.225-3.654,2.732c-0.674,1.672-0.018,2.701,1.412,2.701c0.748,0,1.318-0.193,1.758-0.357L168.709,102.48z"></path> <path fill="#FFFFFF" d="M175.672,93.449l-0.838,2.076h1.879l-0.404,1h-1.881l-1.572,3.895c-0.363,0.896-0.316,1.404,0.416,1.404 c0.344,0,0.615-0.045,0.799-0.09l-0.338,0.984c-0.297,0.105-0.73,0.18-1.236,0.18c-0.613,0-1.027-0.193-1.193-0.551 c-0.217-0.391-0.092-1.031,0.25-1.881l1.592-3.941h-1.119l0.404-1h1.121l0.699-1.732L175.672,93.449z"></path> <path fill="#FFFFFF" d="M177.28,97.779c0.344-0.852,0.625-1.584,0.85-2.254h1.148l-0.525,1.416h0.059 c0.721-0.969,1.758-1.58,2.639-1.58c0.148,0,0.246,0.016,0.354,0.043l-0.5,1.24c-0.123-0.029-0.25-0.045-0.43-0.045 c-0.924,0-1.865,0.701-2.441,1.686c-0.102,0.178-0.217,0.391-0.307,0.611l-1.557,3.854h-1.299L177.28,97.779z"></path> <path fill="#FFFFFF" d="M188.02,99.076c-1.078,2.672-3.4,3.838-5.146,3.838c-1.953,0-2.881-1.434-1.959-3.717 c0.979-2.42,3.133-3.836,5.131-3.836C188.12,95.361,188.913,96.869,188.02,99.076z M182.26,99.152 c-0.639,1.582-0.211,2.775,1.07,2.775c1.256,0,2.67-1.18,3.328-2.805c0.494-1.227,0.512-2.777-1.041-2.777 C184.067,96.345,182.817,97.779,182.26,99.152z"></path> <path fill="#FFFFFF" d="M190.323,97.48c0.299-0.746,0.533-1.359,0.73-1.955h1.162l-0.406,1.193h0.029 c0.635-0.688,1.742-1.357,2.936-1.357c1,0,2.311,0.596,1.309,3.074l-1.742,4.314h-1.313l1.684-4.166 c0.469-1.164,0.428-2.133-0.811-2.133c-0.865,0-1.783,0.611-2.303,1.342c-0.127,0.166-0.246,0.387-0.338,0.613l-1.756,4.344 h-1.313L190.323,97.48z"></path> <path fill="#FFFFFF" d="M196.475,102.75l2.92-7.225h1.311l-2.918,7.225H196.475z M201.676,93.494 c-0.166,0.447-0.641,0.807-1.16,0.807c-0.465,0-0.646-0.359-0.465-0.807c0.186-0.463,0.674-0.818,1.15-0.818 C201.694,92.675,201.864,93.031,201.676,93.494z"></path> <path fill="#FFFFFF" d="M205.223,102.48c-0.416,0.18-1.275,0.418-2.244,0.418c-2.18,0-3-1.477-2.105-3.688 c0.896-2.225,3.072-3.834,5.43-3.834c0.773,0,1.383,0.193,1.668,0.371l-0.707,1.016c-0.24-0.18-0.668-0.344-1.383-0.344 c-1.656,0-3.047,1.225-3.656,2.732c-0.676,1.672-0.016,2.701,1.414,2.701c0.746,0,1.316-0.193,1.756-0.357L205.223,102.48z"></path> <path fill="#FFFFFF" d="M207.016,101.406c0.283,0.254,0.861,0.521,1.52,0.521c0.953,0,1.594-0.477,1.836-1.074 c0.254-0.627,0.018-0.969-0.805-1.328c-1.113-0.463-1.434-1.182-1.086-2.045c0.471-1.166,1.797-2.119,3.35-2.119 c0.73,0,1.287,0.209,1.594,0.449l-0.715,0.953c-0.209-0.18-0.637-0.418-1.309-0.418c-0.775,0-1.389,0.447-1.605,0.984 c-0.242,0.598,0.082,0.867,0.877,1.225c1.061,0.479,1.449,1.104,1.016,2.18c-0.512,1.268-1.859,2.164-3.574,2.164 c-0.793,0-1.445-0.193-1.832-0.492L207.016,101.406z"></path> </g> </g> </g> </svg> 