<?xml version="1.0" encoding="utf-8"?>
<!-- Generator: Adobe Illustrator 26.1.0, SVG Export Plug-In . SVG Version: 6.00 Build 0)  -->
<svg version="1.1" id="Layer_1" xmlns="http://www.w3.org/2000/svg" xmlns:xlink="http://www.w3.org/1999/xlink" x="0px" y="0px"
	 viewBox="0 0 300 95" style="enable-background:new 0 0 300 95;" xml:space="preserve">
<style type="text/css">
	.st0{fill:#212322;}
</style>
<g>
	<path class="st0" d="M2.9,53.5c-1.9-9.7,4-19.5,15.7-21.8c4.5-0.9,8.2-0.2,11.6,1.3c1.6,0.7,2,2.1,1.2,3.7l-1.2,2.2
		c-0.8,1.6-2,1.8-3.7,1.1c-2.1-0.7-4.3-0.8-6.2-0.4c-6.2,1.2-9.2,6.5-8.1,12.1c1.1,5.6,5.9,9.3,12.1,8.1c1.9-0.4,4-1.3,5.6-2.7
		c1.3-1.3,2.5-1.5,3.9-0.4l2,1.6c1.4,1.1,1.6,2.4,0.5,3.6c-2.6,2.8-5.8,4.9-10.4,5.9C14,70,4.8,63.2,2.9,53.5z M47.3,45.1
		c-1.2-9.9,5.2-19.1,16.6-20.6c11.5-1.4,20,6,21.2,15.9c1.2,9.9-5.2,19.1-16.7,20.6C57,62.4,48.6,54.9,47.3,45.1z M75.8,41.5
		c-0.7-5.6-5-9.7-10.9-9c-5.8,0.7-9,5.8-8.3,11.4c0.7,5.6,5.1,9.7,10.9,9C73.3,52.2,76.5,47.1,75.8,41.5z M114.3,43.9l-3.7,0.2
		l0.5,9.6c0.1,1.8-0.9,2.8-2.6,2.9l-3.9,0.2c-1.8,0.1-2.8-0.8-2.9-2.6l-1.5-30.1c-0.1-1.8,0.8-2.8,2.6-2.9l13.9-0.7
		c7.9-0.4,12.5,4.9,12.9,11.5c0.3,5.3-2.3,9.3-7.1,11c0.6,3.5,2.6,6,5.1,5.9c1.1-0.1,1.6-0.2,2.2-0.5c1.6-0.6,2.1-0.3,3,1.3l0.7,1.2
		c0.8,1.5,0.7,2.8-0.8,3.7c-1.8,1-4,1.6-6.4,1.7C117.3,56.7,114.9,47.7,114.3,43.9z M116.5,37.2c2.3-0.1,3.8-2.2,3.7-4.5
		c-0.1-2.4-1.8-4.3-4.1-4.2l-6.3,0.3l0.4,8.7L116.5,37.2z M147.6,52.5l0.6-30.1c0-1.8,1-2.7,2.8-2.7l2.4,0c1.5,0,2.5,0.6,3.3,1.8
		L168.8,39l0.3-16.2c0-1.8,1-2.7,2.8-2.7l3.9,0.1c1.8,0,2.7,1,2.7,2.8l-0.6,30.1c0,1.8-1,2.7-2.8,2.7l-2.3,0c-1.5,0-2.5-0.6-3.3-1.8
		l-12.2-17.7L157,52.6c0,1.8-1.1,2.7-2.8,2.7l-3.9-0.1C148.5,55.2,147.6,54.2,147.6,52.5z M194.8,54.1l2.3-30
		c0.1-1.8,1.2-2.7,2.9-2.5l3.9,0.3c1.7,0.1,2.7,1.2,2.5,2.9l-2.3,30c-0.1,1.8-1.2,2.7-2.9,2.5l-3.9-0.3
		C195.6,57,194.7,55.9,194.8,54.1z M219.9,51.6c-0.4-1.8,0.6-2.9,2.4-3.1l2.6-0.3c1.6-0.2,2.4,0.6,3.1,2.2c0.9,1.9,2.7,3.2,5.5,3.5
		c2.9,0.4,5-0.5,5.3-2.6c0.2-1.3-0.5-2.7-3-3.9l-4.1-2.1c-2.9-1.3-9.3-4.9-8.6-11.4c0.8-6.6,7-10.1,14.4-9.2c5.5,0.7,9,3.5,10.7,7.8
		c0.7,1.8-0.3,3-2.1,3.3l-2.5,0.4c-1.6,0.3-2.5-0.5-3.3-1.9c-0.6-1.2-1.8-2-3.6-2.2c-2.1-0.3-4.2,0.5-4.4,2.4
		c-0.1,1.1,0.4,2.4,2.9,3.7l4,2.1c7,3.5,9.2,7.3,8.7,12c-0.9,7.2-7.7,10-15.3,9C225.7,60.3,221.2,56.8,219.9,51.6z M261.6,62
		l5.8-29.5c0.3-1.7,1.5-2.5,3.2-2.2l3.8,0.7c1.7,0.3,2.5,1.5,2.2,3.2L274.3,46l11.7,2.3l2.3-11.8c0.3-1.7,1.5-2.5,3.2-2.2l3.7,0.7
		c1.7,0.3,2.5,1.5,2.2,3.2l-5.8,29.5c-0.3,1.7-1.5,2.5-3.2,2.2l-3.7-0.7c-1.7-0.3-2.5-1.5-2.2-3.2l2-10.3l-11.7-2.3l-2,10.3
		c-0.3,1.7-1.5,2.5-3.2,2.2l-3.8-0.7C262,64.9,261.3,63.7,261.6,62z M141.5,3.2V4c0,0.5-0.3,0.8-0.8,0.8h-2.2v7.3
		c0,0.5-0.3,0.8-0.8,0.8h-1.1c-0.5,0-0.8-0.3-0.8-0.8V4.8h-2.1c-0.5,0-0.8-0.3-0.8-0.8V3.2c0-0.5,0.3-0.8,0.8-0.8h7.1
		C141.2,2.4,141.5,2.7,141.5,3.2z M145.8,12.1V3.2c0-0.5,0.3-0.8,0.8-0.8h1.1c0.5,0,0.8,0.3,0.8,0.8v3.5h3.5V3.2
		c0-0.5,0.3-0.8,0.8-0.8h1.1c0.5,0,0.8,0.3,0.8,0.8v8.9c0,0.5-0.3,0.8-0.8,0.8h-1.1c-0.5,0-0.8-0.3-0.8-0.8V9h-3.5v3.1
		c0,0.5-0.3,0.8-0.8,0.8h-1.1C146.1,12.9,145.8,12.6,145.8,12.1z M162.7,4.8v1.9h3.1c0.5,0,0.8,0.3,0.8,0.8v0.5
		c0,0.5-0.3,0.8-0.8,0.8h-3.1v1.8h3.7c0.5,0,0.8,0.3,0.8,0.8v0.7c0,0.5-0.3,0.8-0.8,0.8h-5.7c-0.5,0-0.8-0.3-0.8-0.8V3.2
		c0-0.5,0.3-0.8,0.8-0.8h5.7c0.5,0,0.8,0.3,0.8,0.8V4c0,0.5-0.3,0.8-0.8,0.8H162.7z M222.4,85v-6.8l-1.4,0.6c-0.5,0.2-0.9,0-1-0.5
		l-0.2-0.5c-0.2-0.5,0-0.9,0.5-1.1l2.8-1.2c0.4-0.2,0.7-0.2,1.2-0.2c0.5,0,0.8,0.3,0.8,0.8V85c0,0.5-0.3,0.8-0.8,0.8h-1.1
		C222.7,85.8,222.4,85.5,222.4,85z M238.6,80.4c0,3-1.5,5.6-5,5.6c-1,0-2.1-0.2-3-0.8c-0.5-0.3-0.5-0.7-0.1-1.1l0.3-0.3
		c0.3-0.4,0.7-0.4,1.1-0.2c0.4,0.2,0.9,0.3,1.5,0.3c1.7,0,2.6-1,2.6-2.8c-0.6,0.8-1.7,1.3-2.7,1.3c-2,0-3.7-1.3-3.7-3.5
		c0-2.1,1.7-3.7,4.2-3.7C236.9,75.1,238.6,77.2,238.6,80.4z M232.3,78.8c0,0.9,0.8,1.5,1.8,1.5c1.1,0,1.8-0.7,1.8-1.5
		s-0.6-1.5-1.8-1.5C233.1,77.3,232.3,77.9,232.3,78.8z M251.6,80.4c0,3-1.5,5.6-5,5.6c-1,0-2.1-0.2-3-0.8c-0.5-0.3-0.5-0.7-0.1-1.1
		l0.3-0.3c0.3-0.4,0.7-0.4,1.1-0.2c0.4,0.2,0.9,0.3,1.5,0.3c1.7,0,2.6-1,2.6-2.8c-0.6,0.8-1.7,1.3-2.7,1.3c-2,0-3.7-1.3-3.7-3.5
		c0-2.1,1.7-3.7,4.2-3.7C249.9,75.1,251.6,77.2,251.6,80.4z M245.4,78.8c0,0.9,0.8,1.5,1.8,1.5c1.1,0,1.8-0.7,1.8-1.5
		s-0.6-1.5-1.8-1.5C246.1,77.3,245.4,77.9,245.4,78.8z M264.7,80.4c0,3-1.5,5.6-5,5.6c-1,0-2.1-0.2-3-0.8c-0.5-0.3-0.5-0.7-0.1-1.1
		l0.3-0.3c0.3-0.4,0.7-0.4,1.1-0.2c0.4,0.2,0.9,0.3,1.5,0.3c1.7,0,2.6-1,2.6-2.8c-0.6,0.8-1.7,1.3-2.7,1.3c-2,0-3.7-1.3-3.7-3.5
		c0-2.1,1.7-3.7,4.2-3.7C263,75.1,264.7,77.2,264.7,80.4z M258.4,78.8c0,0.9,0.8,1.5,1.8,1.5c1.1,0,1.8-0.7,1.8-1.5
		s-0.6-1.5-1.8-1.5C259.2,77.3,258.4,77.9,258.4,78.8z M95,80.6c0-6.5,4.9-12,12.5-12c7.6,0,12.5,5.5,12.5,12c0,6.5-4.9,12-12.5,12
		C99.9,92.6,95,87.1,95,80.6z M113.8,80.6c0-3.7-2.5-6.7-6.3-6.7c-3.8,0-6.3,3-6.3,6.7c0,3.7,2.5,6.7,6.3,6.7
		C111.3,87.3,113.8,84.3,113.8,80.6z M134.7,90.8l-7-19.8c-0.4-1.2,0.1-2.1,1.4-2.1h2.8c1.1,0,1.7,0.5,2,1.5l4.1,13.6l4.1-13.6
		c0.3-1,1-1.5,2-1.5h2.8c1.3,0,1.9,0.8,1.4,2.1l-7.1,19.8c-0.4,1-1,1.4-2,1.4h-2.4C135.7,92.2,135,91.8,134.7,90.8z M164.4,74.1v4.2
		h6.9c1.2,0,1.8,0.6,1.8,1.8v1.1c0,1.2-0.7,1.8-1.8,1.8h-6.9v4h8.3c1.2,0,1.8,0.6,1.8,1.8v1.6c0,1.2-0.6,1.8-1.8,1.8h-12.6
		c-1.2,0-1.8-0.6-1.8-1.8V70.7c0-1.2,0.6-1.8,1.8-1.8h12.6c1.2,0,1.8,0.6,1.8,1.8v1.6c0,1.2-0.6,1.8-1.8,1.8H164.4z M185.2,90.4
		V70.7c0-1.2,0.6-1.8,1.8-1.8h1.6c1,0,1.6,0.4,2.2,1.1l8.1,11.3V70.7c0-1.2,0.6-1.8,1.8-1.8h2.5c1.2,0,1.8,0.6,1.8,1.8v19.7
		c0,1.2-0.6,1.8-1.8,1.8h-1.5c-1,0-1.6-0.4-2.2-1.1l-8.2-11.5v10.8c0,1.2-0.7,1.8-1.8,1.8H187C185.8,92.2,185.2,91.6,185.2,90.4z
		 M40.1,77.7v1.9h3.1c0.5,0,0.8,0.3,0.8,0.8v0.5c0,0.5-0.3,0.8-0.8,0.8h-3.1v1.8h3.7c0.5,0,0.8,0.3,0.8,0.8V85
		c0,0.5-0.3,0.8-0.8,0.8h-5.7c-0.5,0-0.8-0.3-0.8-0.8v-8.9c0-0.5,0.3-0.8,0.8-0.8h5.7c0.5,0,0.8,0.3,0.8,0.8v0.7
		c0,0.5-0.3,0.8-0.8,0.8H40.1z M48.9,83.6c-0.2-0.5,0.1-0.9,0.6-1l0.8-0.2c0.5-0.1,0.7,0.1,1,0.5c0.3,0.5,0.9,0.8,1.7,0.8
		c0.9,0,1.5-0.3,1.5-1c0-0.4-0.3-0.8-1-1l-1.3-0.5c-0.9-0.3-2.9-1.1-2.9-3c0-2,1.7-3.2,3.9-3.2c1.6,0,2.8,0.7,3.4,1.9
		c0.3,0.5,0,0.9-0.5,1l-0.7,0.2c-0.5,0.1-0.7,0-1.1-0.4c-0.2-0.3-0.6-0.5-1.1-0.5c-0.6,0-1.2,0.3-1.2,0.9c0,0.3,0.2,0.7,1,1l1.3,0.5
		c2.2,0.8,3,1.8,3,3.2c0,2.1-1.9,3.2-4.1,3.2C50.9,86,49.5,85.1,48.9,83.6z M69.4,76.1v0.7c0,0.5-0.3,0.8-0.8,0.8h-2.2V85
		c0,0.5-0.3,0.8-0.8,0.8h-1.1c-0.5,0-0.8-0.3-0.8-0.8v-7.3h-2.1c-0.5,0-0.8-0.3-0.8-0.8v-0.7c0-0.5,0.3-0.8,0.8-0.8h7.1
		C69.2,75.3,69.4,75.6,69.4,76.1z M73.5,82.3v-6.4c0-0.4,0.2-0.6,0.6-0.6h2.7c2.3,0,3.9,1.7,3.9,3.8c0,2.1-1.6,3.8-3.9,3.8h-2.7
		C73.7,82.9,73.5,82.7,73.5,82.3z M76.5,81.2c1.3,0,2.1-0.9,2.1-2.1c0-1.2-0.8-2.1-2.1-2.1h-1.1v4.2H76.5z M80.6,85.1v-0.3
		c0-0.4-0.3-0.7-0.7-0.7h-5.7c-0.4,0-0.7,0.3-0.7,0.7v0.3c0,0.4,0.3,0.7,0.7,0.7h5.7C80.3,85.8,80.6,85.5,80.6,85.1z"/>
</g>
</svg>
